<svg fill="none" height="32" viewBox="0 0 32 32" width="32" xmlns="http://www.w3.org/2000/svg">
  <path clip-rule="evenodd" d="M4.62695 5.66669H5.96029L6.02695 5.68002C7.87516 5.71587 9.49006 6.93781 10.027 8.70669L10.2936 9.62669H24.2003C25.4283 9.63228 26.5944 10.1667 27.4003 11.0934C28.2039 12.0259 28.5595 13.2631 28.3736 14.48L27.5736 20C27.3072 22.1159 25.5194 23.7101 23.387 23.7334H15.547C13.674 23.7264 12.0246 22.4988 11.4803 20.7067L8.10695 9.33335C7.84864 8.35759 6.96962 7.67513 5.96029 7.66669H4.62695C4.07467 7.66669 3.62695 7.21897 3.62695 6.66669C3.62695 6.1144 4.07467 5.66669 4.62695 5.66669ZM13.4003 20.0667C13.6833 21.016 14.5563 21.6667 15.547 21.6667H23.387C24.4905 21.6547 25.4251 20.8497 25.6003 19.76L26.4003 14.2267C26.5092 13.5826 26.3316 12.923 25.9139 12.4208C25.4962 11.9185 24.8801 11.6236 24.227 11.6134H10.8936L13.4003 20.0667Z"
        fill="white"
        fill-rule="evenodd"/>
  <path
    d="M15.2403 25.3334C14.5039 25.3334 13.907 25.9303 13.907 26.6667C13.907 27.4031 14.5039 28 15.2403 28C15.9767 28 16.5736 27.4031 16.5736 26.6667C16.5736 25.9303 15.9767 25.3334 15.2403 25.3334Z"
    fill="white"/>
  <path
    d="M23.2403 25.3334C22.5039 25.3334 21.907 25.9303 21.907 26.6667C21.907 27.4031 22.5039 28 23.2403 28C23.9767 28 24.5736 27.4031 24.5736 26.6667C24.5736 25.9303 23.9767 25.3334 23.2403 25.3334Z"
    fill="white"/>
  <path clip-rule="evenodd" d="M4.62695 5.66669H5.96029L6.02695 5.68002C7.87516 5.71587 9.49006 6.93781 10.027 8.70669L10.2936 9.62669H24.2003C25.4283 9.63228 26.5944 10.1667 27.4003 11.0934C28.2039 12.0259 28.5595 13.2631 28.3736 14.48L27.5736 20C27.3072 22.1159 25.5194 23.7101 23.387 23.7334H15.547C13.674 23.7264 12.0246 22.4988 11.4803 20.7067L8.10695 9.33335C7.84864 8.35759 6.96962 7.67513 5.96029 7.66669H4.62695C4.07467 7.66669 3.62695 7.21897 3.62695 6.66669C3.62695 6.1144 4.07467 5.66669 4.62695 5.66669ZM13.4003 20.0667C13.6833 21.016 14.5563 21.6667 15.547 21.6667H23.387C24.4905 21.6547 25.4251 20.8497 25.6003 19.76L26.4003 14.2267C26.5092 13.5826 26.3316 12.923 25.9139 12.4208C25.4962 11.9185 24.8801 11.6236 24.227 11.6134H10.8936L13.4003 20.0667Z"
        fill-rule="evenodd"
        stroke="white" stroke-width="1.2"/>
  <path
    d="M15.2403 25.3334C14.5039 25.3334 13.907 25.9303 13.907 26.6667C13.907 27.4031 14.5039 28 15.2403 28C15.9767 28 16.5736 27.4031 16.5736 26.6667C16.5736 25.9303 15.9767 25.3334 15.2403 25.3334Z"
    stroke="white" stroke-width="1.2"/>
  <path
    d="M23.2403 25.3334C22.5039 25.3334 21.907 25.9303 21.907 26.6667C21.907 27.4031 22.5039 28 23.2403 28C23.9767 28 24.5736 27.4031 24.5736 26.6667C24.5736 25.9303 23.9767 25.3334 23.2403 25.3334Z"
    stroke="white" stroke-width="1.2"/>
</svg>
