<svg width="118" height="106" viewBox="0 0 118 106" fill="none" xmlns="http://www.w3.org/2000/svg">
<g id="Group">
<path id="Vector" d="M101.752 17.5453H80.2382L74.6259 3.59037C73.8823 1.73132 72.0835 0.5 70.0928 0.5H47.9551C45.9644 0.5 44.1656 1.70717 43.4221 3.59037L37.8097 17.5453H16.2716C7.42136 17.5453 0.25 24.7883 0.25 33.6731V89.3722C0.25 98.2811 7.44534 105.5 16.2716 105.5H101.728C110.579 105.5 117.75 98.257 117.75 89.3722V33.6731C117.774 24.7883 110.579 17.5453 101.752 17.5453ZM51.241 10.3505H66.7829L69.6611 17.5212H48.3389L51.241 10.3505ZM107.988 89.3722C107.988 92.8247 105.182 95.6495 101.752 95.6495H16.2716C12.8419 95.6495 10.0357 92.8247 10.0357 89.3722V33.6731C10.0357 30.2206 12.8419 27.3958 16.2716 27.3958H101.728C105.158 27.3958 107.964 30.2206 107.964 33.6731V89.3722H107.988Z" fill="#FFD640"/>
<path id="Vector_2" d="M59.0108 34.5918C44.2604 34.5918 32.2441 46.6877 32.2441 61.5359C32.2441 76.4083 44.2604 88.48 59.0108 88.48C73.7613 88.48 85.7775 76.3842 85.7775 61.5359C85.7775 46.6635 73.7613 34.5918 59.0108 34.5918ZM59.0108 78.6295C49.6569 78.6295 42.0298 70.9519 42.0298 61.5359C42.0298 52.12 49.6569 44.4423 59.0108 44.4423C68.3648 44.4423 75.9918 52.12 75.9918 61.5359C75.9918 70.9519 68.3648 78.6295 59.0108 78.6295Z" fill="#FFD640"/>
</g>
</svg>
