<svg width="22" height="20" viewBox="0 0 22 20" fill="none" xmlns="http://www.w3.org/2000/svg">
<g id="Visibility">
<path id="Vector" d="M11 4.05C14.79 4.05 18.17 6.18 19.82 9.55C19.23 10.77 18.4 11.82 17.41 12.67L18.82 14.08C20.21 12.85 21.31 11.31 22 9.55C20.27 5.16 16 2.05 11 2.05C9.73 2.05 8.51 2.25 7.36 2.62L9.01 4.27C9.66 4.14 10.32 4.05 11 4.05ZM9.93 5.19L12 7.26C12.57 7.51 13.03 7.97 13.28 8.54L15.35 10.61C15.43 10.27 15.49 9.91 15.49 9.54C15.5 7.06 13.48 5.05 11 5.05C10.63 5.05 10.28 5.1 9.93 5.19ZM1.01 1.92L3.69 4.6C2.06 5.88 0.77 7.58 0 9.55C1.73 13.94 6 17.05 11 17.05C12.52 17.05 13.98 16.76 15.32 16.23L18.74 19.65L20.15 18.24L2.42 0.5L1.01 1.92ZM8.51 9.42L11.12 12.03C11.08 12.04 11.04 12.05 11 12.05C9.62 12.05 8.5 10.93 8.5 9.55C8.5 9.5 8.51 9.47 8.51 9.42ZM5.11 6.02L6.86 7.77C6.63 8.32 6.5 8.92 6.5 9.55C6.5 12.03 8.52 14.05 11 14.05C11.63 14.05 12.23 13.92 12.77 13.69L13.75 14.67C12.87 14.91 11.95 15.05 11 15.05C7.21 15.05 3.83 12.92 2.18 9.55C2.88 8.12 3.9 6.94 5.11 6.02Z" fill="#070A0F"/>
</g>
</svg>
