<svg width="24" height="17" viewBox="0 0 24 17" fill="none" xmlns="http://www.w3.org/2000/svg">
<g id="Visibility">
<path id="Vector" d="M12 2.17723C16.1345 2.17723 19.8218 4.44923 21.6218 8.0439C19.8218 11.6386 16.1345 13.9106 12 13.9106C7.86545 13.9106 4.17818 11.6386 2.37818 8.0439C4.17818 4.44923 7.86545 2.17723 12 2.17723ZM12 0.0438995C6.54545 0.0438995 1.88727 3.36123 0 8.0439C1.88727 12.7266 6.54545 16.0439 12 16.0439C17.4545 16.0439 22.1127 12.7266 24 8.0439C22.1127 3.36123 17.4545 0.0438995 12 0.0438995ZM12 5.37723C13.5055 5.37723 14.7273 6.5719 14.7273 8.0439C14.7273 9.5159 13.5055 10.7106 12 10.7106C10.4945 10.7106 9.27273 9.5159 9.27273 8.0439C9.27273 6.5719 10.4945 5.37723 12 5.37723ZM12 3.2439C9.29455 3.2439 7.09091 5.39857 7.09091 8.0439C7.09091 10.6892 9.29455 12.8439 12 12.8439C14.7055 12.8439 16.9091 10.6892 16.9091 8.0439C16.9091 5.39857 14.7055 3.2439 12 3.2439Z" fill="#070A0F" fill-opacity="0.5"/>
</g>
</svg>
