<svg fill="none" height="32" viewBox="0 0 32 32" width="32" xmlns="http://www.w3.org/2000/svg">
  <path
    d="M16.1346 27.7333C15.468 27.7333 14.668 27.4667 14.1346 26.9333C5.46797 19.3333 5.33464 19.2 5.33464 19.0667L5.2013 18.9333C3.6013 17.3333 2.66797 15.0667 2.66797 12.8V12.5333C2.8013 7.73333 6.66797 4 11.468 4C12.9346 4 14.9346 4.8 16.1346 6.4C17.3346 4.8 19.468 4 20.9346 4C25.7346 4 29.468 7.73333 29.7346 12.5333V12.8C29.7346 15.2 28.8013 17.3333 27.2013 19.0667L27.068 19.2C26.9346 19.3333 25.868 20.2667 18.268 27.0667C17.6013 27.4667 16.9346 27.7333 16.1346 27.7333ZM7.33464 18.6667C7.86797 19.2 10.5346 21.0667 15.468 25.3333C15.868 25.7333 16.4013 25.7333 16.8013 25.3333C21.868 20.8 24.8013 18.2667 25.468 17.7333L25.6013 17.6C26.9346 16.2667 27.6013 14.5333 27.6013 12.8V12.5333C27.468 8.8 24.5346 6 20.8013 6C19.868 6 18.0013 6.66667 17.3346 8.13333C17.068 8.66667 16.5346 8.93333 16.0013 8.93333C15.468 8.93333 14.9346 8.66667 14.668 8.13333C14.0013 6.8 12.268 6 11.2013 6C7.6013 6 4.53463 8.93333 4.4013 12.5333V12.9333C4.4013 14.6667 5.2013 16.4 6.4013 17.6L7.33464 18.6667Z"
    fill="#FFD640"/>
</svg>
