<svg width="24" height="20" viewBox="0 0 24 20" fill="none" xmlns="http://www.w3.org/2000/svg">
<path d="M12.2954 15.284C12.962 15.2147 13.4714 14.9987 13.8234 14.636C14.1754 14.268 14.3514 13.7987 14.3514 13.228C14.3514 12.9773 14.3034 12.7613 14.2074 12.58C14.1167 12.3987 13.9914 12.2413 13.8314 12.108C13.6714 11.9693 13.482 11.852 13.2634 11.756C13.05 11.66 12.8207 11.572 12.5754 11.492L12.2954 15.284ZM11.9754 6.252C11.6394 6.284 11.3487 6.35067 11.1034 6.452C10.8634 6.55333 10.6634 6.67867 10.5034 6.828C10.3487 6.97733 10.234 7.148 10.1594 7.34C10.0847 7.532 10.0474 7.732 10.0474 7.94C10.0474 8.18 10.09 8.39067 10.1754 8.572C10.2607 8.75333 10.378 8.91333 10.5274 9.052C10.682 9.18533 10.8607 9.30267 11.0634 9.404C11.2714 9.50533 11.4927 9.59867 11.7274 9.684L11.9754 6.252ZM12.6794 9.996C13.0634 10.1133 13.442 10.244 13.8154 10.388C14.194 10.5267 14.5327 10.7053 14.8314 10.924C15.13 11.1427 15.37 11.4173 15.5514 11.748C15.738 12.0733 15.8314 12.484 15.8314 12.98C15.8314 13.46 15.7487 13.9133 15.5834 14.34C15.4234 14.7667 15.1887 15.1427 14.8794 15.468C14.57 15.7933 14.1887 16.0573 13.7354 16.26C13.2874 16.4627 12.7754 16.5827 12.1994 16.62L12.1034 17.956C12.098 18.0627 12.0554 18.1587 11.9754 18.244C11.8954 18.3293 11.794 18.372 11.6714 18.372H11.0954L11.2234 16.596C10.5887 16.5267 10.002 16.364 9.46338 16.108C8.92471 15.8467 8.46338 15.5187 8.07938 15.124L8.55138 14.404C8.59938 14.34 8.65804 14.2867 8.72738 14.244C8.79671 14.2013 8.87404 14.18 8.95938 14.18C9.06604 14.18 9.18338 14.228 9.31138 14.324C9.44471 14.42 9.60204 14.532 9.78338 14.66C9.96471 14.7827 10.178 14.9053 10.4234 15.028C10.674 15.1453 10.9727 15.228 11.3194 15.276L11.6154 11.204C11.242 11.092 10.874 10.9667 10.5114 10.828C10.1487 10.684 9.82338 10.4973 9.53538 10.268C9.24738 10.0333 9.01538 9.74267 8.83938 9.396C8.66338 9.04933 8.57538 8.61467 8.57538 8.092C8.57538 7.69733 8.65271 7.31333 8.80738 6.94C8.96204 6.56667 9.18604 6.23333 9.47938 5.94C9.77804 5.64667 10.1434 5.40667 10.5754 5.22C11.0127 5.03333 11.5114 4.92933 12.0714 4.908L12.1514 3.788C12.1567 3.68133 12.1994 3.58533 12.2794 3.5C12.3594 3.41467 12.4607 3.372 12.5834 3.372H13.1594L13.0474 4.948C13.6074 5.02267 14.09 5.172 14.4954 5.396C14.906 5.61467 15.266 5.87867 15.5754 6.188L15.1994 6.764C15.0874 6.94 14.9567 7.028 14.8074 7.028C14.7327 7.028 14.6394 6.996 14.5274 6.932C14.4207 6.868 14.29 6.796 14.1354 6.716C13.986 6.63067 13.8127 6.54533 13.6154 6.46C13.418 6.37467 13.1967 6.31067 12.9514 6.268L12.6794 9.996Z" fill="#070A0F"/>
<path d="M1 19.5V0.5H-1V19.5H1Z" fill="#00478F" mask="url(#path-1-inside-1_555_13086)"/>
</svg>
