<svg fill="none" height="24" viewBox="0 0 24 24" width="24" xmlns="http://www.w3.org/2000/svg">
  <path clip-rule="evenodd" d="M9.85 12.81H8.46C8.19128 12.81 7.93385 12.7019 7.74573 12.51C7.55761 12.3182 7.45463 12.0586 7.46 11.79V10.4C7.46 9.84769 7.90772 9.39998 8.46 9.39998H9.85C10.4023 9.39998 10.85 9.84769 10.85 10.4V11.81C10.85 12.3623 10.4023 12.81 9.85 12.81ZM9.37 10.88H8.94V11.31H9.37V10.88Z"
        fill="black"
        fill-rule="evenodd"/>
  <path
    d="M8.13 15.34H12.56C12.9742 15.34 13.31 15.0042 13.31 14.59C13.31 14.1758 12.9742 13.84 12.56 13.84H8.13C7.71579 13.84 7.38 14.1758 7.38 14.59C7.38 15.0042 7.71579 15.34 8.13 15.34Z"
    fill="black"/>
  <path
    d="M14 16.37H8.13C7.71579 16.37 7.38 16.7058 7.38 17.12C7.38 17.5342 7.71579 17.87 8.13 17.87H14C14.4142 17.87 14.75 17.5342 14.75 17.12C14.75 16.7058 14.4142 16.37 14 16.37Z"
    fill="black"/>
  <path clip-rule="evenodd" d="M19.53 9.43998L12.53 2.43998C12.3827 2.3137 12.194 2.24607 12 2.24998H9C6.37665 2.24998 4.25 4.37662 4.25 6.99998V17C4.25 19.6233 6.37665 21.75 9 21.75H15C17.6234 21.75 19.75 19.6233 19.75 17V9.99998C19.7534 9.7916 19.6743 9.59032 19.53 9.43998ZM12.75 4.78998L17.21 9.24998H14C13.3096 9.24998 12.75 8.69033 12.75 7.99998V4.78998ZM5.75 17C5.75549 18.7926 7.20735 20.2445 9 20.25H15C16.7926 20.2445 18.2445 18.7926 18.25 17V10.75H14C12.4812 10.75 11.25 9.51876 11.25 7.99998V3.74998H9C7.20735 3.75547 5.75549 5.20733 5.75 6.99998V17Z"
        fill="black"
        fill-rule="evenodd"/>
</svg>
