<svg fill="none" height="24" viewBox="0 0 24 24" width="24" xmlns="http://www.w3.org/2000/svg">
  <path
    d="M9.15061 23.25C9.15061 23.0511 9.0716 22.8603 8.93094 22.7197C8.79029 22.579 8.59953 22.5 8.40061 22.5H4.65061C4.25279 22.5 3.87126 22.342 3.58995 22.0607C3.30865 21.7794 3.15061 21.3978 3.15061 21V3C3.15061 2.60217 3.30865 2.22064 3.58995 1.93934C3.87126 1.65804 4.25279 1.5 4.65061 1.5H8.40061C8.59953 1.5 8.79029 1.42098 8.93094 1.28033C9.0716 1.13968 9.15061 0.948914 9.15061 0.75C9.15061 0.551086 9.0716 0.360321 8.93094 0.219669C8.79029 0.0790176 8.59953 0 8.40061 0H4.65061C3.85496 0 3.0919 0.316071 2.52929 0.878681C1.96668 1.44129 1.65061 2.20435 1.65061 3V21C1.65061 21.7956 1.96668 22.5587 2.52929 23.1213C3.0919 23.6839 3.85496 24 4.65061 24H8.40061C8.59953 24 8.79029 23.921 8.93094 23.7803C9.0716 23.6397 9.15061 23.4489 9.15061 23.25Z"
    fill="#212529"/>
  <path
    d="M22.2816 12.531C22.3515 12.4613 22.4069 12.3786 22.4447 12.2875C22.4825 12.1963 22.502 12.0987 22.502 12C22.502 11.9013 22.4825 11.8037 22.4447 11.7126C22.4069 11.6214 22.3515 11.5387 22.2816 11.469L17.7816 6.969C17.6408 6.82817 17.4498 6.74905 17.2506 6.74905C17.0514 6.74905 16.8604 6.82817 16.7196 6.969C16.5788 7.10983 16.4997 7.30084 16.4997 7.5C16.4997 7.69916 16.5788 7.89017 16.7196 8.031L19.9401 11.25H6.75061C6.5517 11.25 6.36094 11.329 6.22028 11.4697C6.07963 11.6103 6.00061 11.8011 6.00061 12C6.00061 12.1989 6.07963 12.3897 6.22028 12.5303C6.36094 12.671 6.5517 12.75 6.75061 12.75H19.9401L16.7196 15.969C16.6499 16.0387 16.5946 16.1215 16.5568 16.2126C16.5191 16.3037 16.4997 16.4014 16.4997 16.5C16.4997 16.5986 16.5191 16.6963 16.5568 16.7874C16.5946 16.8785 16.6499 16.9613 16.7196 17.031C16.7893 17.1007 16.8721 17.156 16.9632 17.1938C17.0543 17.2315 17.152 17.2509 17.2506 17.2509C17.3492 17.2509 17.4469 17.2315 17.538 17.1938C17.6291 17.156 17.7119 17.1007 17.7816 17.031L22.2816 12.531Z"
    fill="#212529"/>
</svg>
