<svg width="24" height="24" viewBox="0 0 24 24" fill="none" xmlns="http://www.w3.org/2000/svg">
<g id="Setting">
<g id="Icon">
<path fill-rule="evenodd" clip-rule="evenodd" d="M2.82644 15.0336L2.06644 20.3136C2.01155 20.7201 2.13515 21.1305 2.40542 21.4391C2.67569 21.7477 3.06622 21.9244 3.47644 21.9236H3.68644L8.96644 21.1636C9.68214 21.0649 10.3459 20.7348 10.8564 20.2236L20.5964 10.4736C22.4913 8.51167 22.4642 5.39314 20.5355 3.46447C18.6069 1.5358 15.4883 1.5087 13.5264 3.40356L3.76644 13.1436C3.25524 13.6541 2.92511 14.3179 2.82644 15.0336ZM9.74644 19.1636C9.46985 19.4292 9.12273 19.6097 8.74644 19.6836L3.53644 20.3736L4.26644 15.2036C4.34032 14.8273 4.52082 14.4801 4.78644 14.2036L14.5364 4.46356C15.1934 3.78913 16.0949 3.40874 17.0364 3.40874C17.9779 3.40874 18.8795 3.78913 19.5364 4.46356C20.1954 5.11864 20.5659 6.00942 20.5659 6.93856C20.5659 7.8677 20.1954 8.75848 19.5364 9.41356L9.74644 19.1636Z" fill="#00478F"/>
<path d="M16.5664 6.37356C16.8619 6.0982 17.3224 6.10633 17.6081 6.39194C17.8937 6.67755 17.9018 7.13805 17.6264 7.43356L13.4164 11.6436C13.1236 11.936 12.6493 11.936 12.3564 11.6436C12.064 11.3507 12.064 10.8764 12.3564 10.5836L16.5664 6.37356Z" fill="#00478F"/>
</g>
</g>
</svg>
