<svg fill="none" height="18" viewBox="0 0 19 18" width="19" xmlns="http://www.w3.org/2000/svg">
  <path clip-rule="evenodd" d="M7.12439 1.55018C7.41242 0.618561 8.27934 -0.0122994 9.25439 0.000181925C10.2349 -0.00966892 11.1036 0.630633 11.3844 1.57018L12.0444 3.57018C12.3408 4.49581 13.2025 5.12289 14.1744 5.12018H16.2544C17.2492 5.08249 18.1495 5.70582 18.4643 6.65023C18.7791 7.59463 18.4328 8.63347 17.6144 9.20018L15.9044 10.4502C15.1162 11.0163 14.7846 12.0272 15.0844 12.9502L15.7444 14.9502C15.9712 15.6425 15.8487 16.4019 15.4157 16.9878C14.9827 17.5737 14.2928 17.9137 13.5644 17.9002C13.092 17.8966 12.6331 17.7425 12.2544 17.4602L10.6144 16.2102C9.82788 15.6365 8.7609 15.6365 7.97439 16.2102L6.25439 17.4602C5.87111 17.7686 5.39625 17.9409 4.90439 17.9502C4.17067 17.9563 3.48006 17.6042 3.05396 17.0069C2.62785 16.4095 2.51978 15.642 2.76439 14.9502L3.42439 12.9502C3.74237 12.03 3.42662 11.0098 2.64439 10.4302L0.934388 9.18018C0.141757 8.61152 -0.191705 7.59527 0.109919 6.66755C0.411542 5.73983 1.27889 5.11399 2.25439 5.12018H4.33439C5.31172 5.12014 6.17514 4.48372 6.46439 3.55018L7.12439 1.55018ZM9.78439 2.07018C9.7229 1.83072 9.5013 1.66766 9.25439 1.68018C8.99522 1.67131 8.76912 1.85474 8.72439 2.11018L8.06439 4.11018C7.53986 5.7265 6.03368 6.8208 4.33439 6.82018H2.21439C1.97875 6.82697 1.77259 6.98059 1.69871 7.20446C1.62484 7.42832 1.69907 7.67448 1.88439 7.82018L3.59439 9.07018C4.97367 10.0678 5.55146 11.8416 5.02439 13.4602L4.36439 15.4602C4.29957 15.6244 4.32617 15.8107 4.43439 15.9502C4.54661 16.1117 4.72786 16.2116 4.92439 16.2202C5.04441 16.2166 5.1601 16.1745 5.25439 16.1002L6.94439 14.8502C8.32181 13.8494 10.187 13.8494 11.5644 14.8502L13.2344 16.0402C13.3287 16.1145 13.4444 16.1566 13.5644 16.1602C13.752 16.148 13.9244 16.0526 14.0344 15.9002C14.1426 15.7607 14.1692 15.5744 14.1044 15.4102L13.4444 13.4102C12.9173 11.7916 13.4951 10.0178 14.8744 9.02018L16.5844 7.78018C16.7697 7.63448 16.8439 7.38832 16.7701 7.16446C16.6962 6.94059 16.49 6.78697 16.2544 6.78018H14.1744C12.4751 6.7808 10.9689 5.6865 10.4444 4.07018L9.78439 2.07018Z"
        fill="black"
        fill-rule="evenodd"/>
</svg>
