<svg fill="none" height="30" viewBox="0 0 30 30" width="30" xmlns="http://www.w3.org/2000/svg">
  <path
    d="M1.25 26.5L14.75 2.5L28.25 26.5H1.25ZM4.44091 24.6053H25.0591L14.75 6.28947L4.44091 24.6053ZM14.8727 22.8053C15.1386 22.8053 15.3585 22.7158 15.5324 22.5368C15.7063 22.3579 15.7932 22.1316 15.7932 21.8579C15.7932 21.5842 15.7063 21.3579 15.5324 21.1789C15.3585 21 15.1386 20.9105 14.8727 20.9105C14.6068 20.9105 14.3869 21 14.2131 21.1789C14.0392 21.3579 13.9523 21.5842 13.9523 21.8579C13.9523 22.1316 14.0392 22.3579 14.2131 22.5368C14.3869 22.7158 14.6068 22.8053 14.8727 22.8053ZM13.9523 19.3H15.7932V12.2263H13.9523V19.3Z"
    fill="#EA2727"/>
</svg>
