<svg display="none" xmlns="http://www.w3.org/2000/svg">
<!-- header svgs -->
  <symbol id="logo" >
<g clip-path="url(#clip0_1739_7383)">
            <path
		            d="M0 9.35068C0.468029 5.18847 2.78534 0 7.64067 0H33.8084C50.1285 0 49.9992 25.7172 33.8084 25.7172H28.4813L39.2573 34.5491C45.2238 39.0127 46.8181 44.121 43.1424 50.0038L11.2784 24.2866C8.61477 21.7229 10.5972 16.2368 13.8696 16.2368L32.781 16.3665C35.9925 16.3894 36.1486 9.33542 32.781 9.35068H0Z"
		            fill="#FFD640"/>
          </g>
          <defs>
            <clipPath id="clip0_1739_7383">
              <rect fill="white" height="50" width="46"/>
            </clipPath>
          </defs>
  </symbol>
  <symbol id="place-ads">
<g filter="url(#filter0_d_4292_7640)">
            <circle cx="31.334" cy="30" r="15" fill="white" />
            <rect
              x="30.1348"
              y="24"
              width="2.4"
              height="12"
              rx="1.2"
              fill="#00478F"
            />
            <rect
              x="19.334"
              y="25.2"
              width="2.4"
              height="12"
              rx="1.2"
              transform="rotate(-90 25.334 25.2)"
              fill="#00478F"
            />
          </g>
          <defs>
            <filter
              id="filter0_d_4292_7640"
              x="0.96413"
              y="0.815073"
              width="60.7397"
              height="60.7397"
              filterUnits="userSpaceOnUse"
              color-interpolation-filters="sRGB"
            >
              <feFlood flood-opacity="0" result="BackgroundImageFix" />
              <feColorMatrix
                in="SourceAlpha"
                type="matrix"
                values="0 0 0 0 0 0 0 0 0 0 0 0 0 0 0 0 0 0 127 0"
                result="hardAlpha"
              />
              <feOffset dy="7.18493" />
              <feGaussianBlur stdDeviation="7.18493" />
              <feComposite in2="hardAlpha" operator="out" />
              <feColorMatrix
                type="matrix"
                values="0 0 0 0 0 0 0 0 0 0 0 0 0 0 0 0 0 0 0.1 0"
              />
              <feBlend
                mode="normal"
                in2="BackgroundImageFix"
                result="effect1_dropShadow_4292_7640"
              />
              <feBlend
                mode="normal"
                in="SourceGraphic"
                in2="effect1_dropShadow_4292_7640"
                result="shape"
              />
            </filter>
          </defs>
  </symbol>
  <symbol id="btns-user">
<path
                clip-rule="evenodd"
                d="M19.5806 16.71L19.8206 17.85C20.048 18.8356 19.8235 19.8713 19.2082 20.6742C18.593 21.4771 17.6514 21.9633 16.6406 22H7.36058C6.34976 21.9633 5.40815 21.4771 4.79293 20.6742C4.17771 19.8713 3.95315 18.8356 4.18058 17.85L4.42058 16.71C4.69662 15.1668 6.0232 14.0327 7.59058 14H16.4106C17.978 14.0327 19.3045 15.1668 19.5806 16.71ZM16.6406 20.49C17.1484 20.4841 17.6263 20.2489 17.9406 19.85V19.86C18.3263 19.3762 18.4765 18.7458 18.3506 18.14L18.1106 17C17.9774 16.1552 17.2652 15.5226 16.4106 15.49H7.59059C6.73595 15.5226 6.02375 16.1552 5.89059 17L5.65059 18.14C5.52774 18.7426 5.67785 19.3687 6.06059 19.85C6.37492 20.2489 6.8528 20.4841 7.36059 20.49H16.6406Z"
                fill="#00478F"
                fill-rule="evenodd"
              />
              <path
                clip-rule="evenodd"
                d="M12.5006 12H11.5006C9.29143 12 7.50057 10.2092 7.50057 8.00001V5.36001C7.4979 4.46807 7.85104 3.61189 8.48175 2.98119C9.11245 2.35049 9.96863 1.99735 10.8606 2.00001H13.1406C14.0325 1.99735 14.8887 2.35049 15.5194 2.98119C16.1501 3.61189 16.5032 4.46807 16.5006 5.36001V8.00001C16.5006 10.2092 14.7097 12 12.5006 12ZM10.8606 3.50002C9.83332 3.50002 9.00057 4.33277 9.00057 5.36001V8.00001C9.00057 9.38073 10.1199 10.5 11.5006 10.5H12.5006C13.8813 10.5 15.0006 9.38073 15.0006 8.00001V5.36001C15.0006 4.86671 14.8046 4.39361 14.4558 4.0448C14.107 3.69598 13.6339 3.50002 13.1406 3.50002H10.8606Z"
                fill="#00478F"
                fill-rule="evenodd"
              />
  </symbol>
  <symbol id="btns-favorite">
<path
            d="M12.1 20.8C11.6 20.8 11 20.6 10.6 20.2C4.1 14.5 4 14.4 4 14.3L3.9 14.2C2.7 13 2 11.3 2 9.6V9.4C2.1 5.8 5 3 8.6 3C9.7 3 11.2 3.6 12.1 4.8C13 3.6 14.6 3 15.7 3C19.3 3 22.1 5.8 22.3 9.4V9.6C22.3 11.4 21.6 13 20.4 14.3L20.3 14.4C20.2 14.5 19.4 15.2 13.7 20.3C13.2 20.6 12.7 20.8 12.1 20.8ZM5.5 14C5.9 14.4 7.9 15.8 11.6 19C11.9 19.3 12.3 19.3 12.6 19C16.4 15.6 18.6 13.7 19.1 13.3L19.2 13.2C20.2 12.2 20.7 10.9 20.7 9.6V9.4C20.6 6.6 18.4 4.5 15.6 4.5C14.9 4.5 13.5 5 13 6.1C12.8 6.5 12.4 6.7 12 6.7C11.6 6.7 11.2 6.5 11 6.1C10.5 5.1 9.2 4.5 8.4 4.5C5.7 4.5 3.4 6.7 3.3 9.4V9.7C3.3 11 3.9 12.3 4.8 13.2L5.5 14Z"
            fill="#00478F"
          />
  </symbol>
  <symbol id="btns-shopping-cart">
<path
            d="M0.75 0L1.75 0L1.80078 0.00999832C3.18555 0.0368881 4.39648 0.953342 4.80078 2.28L5 2.97L15.4297 2.97C16.3516 2.97419 17.2246 3.37503 17.8301 4.07C18.4336 4.76937 18.6992 5.69735 18.5605 6.61L17.9609 10.75C17.7598 12.3369 16.4199 13.5325 14.8203 13.55L8.93945 13.55C7.53516 13.5448 6.29883 12.6241 5.89062 11.28L3.35938 2.75C3.16602 2.01818 2.50781 1.50633 1.75 1.5L0.75 1.5C0.335938 1.5 0 1.16422 0 0.75C0 0.335785 0.335938 0 0.75 0ZM7.33008 10.8C7.54297 11.512 8.19727 12 8.93945 12L14.8203 12C15.6484 11.991 16.3477 11.3872 16.4805 10.57L17.0801 6.42C17.1621 5.93694 17.0293 5.44227 16.7148 5.06558C16.4023 4.68889 15.9395 4.46772 15.4492 4.46L5.44922 4.46L7.33008 10.8ZM8.71094 14.75C8.1582 14.75 7.71094 15.1977 7.71094 15.75C7.71094 16.3023 8.1582 16.75 8.71094 16.75C9.26172 16.75 9.71094 16.3023 9.71094 15.75C9.71094 15.1977 9.26172 14.75 8.71094 14.75ZM13.7109 15.75C13.7109 15.1977 14.1582 14.75 14.7109 14.75C15.2617 14.75 15.7109 15.1977 15.7109 15.75C15.7109 16.3023 15.2617 16.75 14.7109 16.75C14.1582 16.75 13.7109 16.3023 13.7109 15.75Z"
            fill="#00478F"
            fill-opacity="1.000000"
            fill-rule="evenodd"
            id="Icon"
          />
  </symbol>
  <!-- end header svgs -->
  <!-- footer svgs -->
  <symbol id="logo-typography">
<g clip-path="url(#clip0_1867_7028)">
            <path
		            d="M0 8.60263C0.430586 4.77339 2.56252 0 7.02941 0H31.1037C46.1183 0 45.9992 23.6599 31.1037 23.6599H26.2028L36.1168 31.7851C41.6059 35.8917 43.0726 40.5913 39.691 46.0035L10.3761 22.3437C7.92559 19.985 9.74946 14.9379 12.7601 14.9379L30.1586 15.0572C33.1131 15.0783 33.2567 8.58859 30.1586 8.60263H0Z"
		            fill="#FFD640"/>
          </g>
          <defs>
            <clipPath id="clip0_1867_7028">
              <rect fill="white" height="46" width="42.32"/>
            </clipPath>
          </defs>
  </symbol>
  <symbol id="instagram">
 <path
              clip-rule="evenodd"
              d="M8 2H15.7C19.0137 2 21.7 4.68629 21.7 8V15.7C21.7 19.0137 19.0137 21.7 15.7 21.7H8C4.68629 21.7 2 19.0137 2 15.7V8C2 4.68629 4.68629 2 8 2ZM20.2 8C20.1945 5.517 18.183 3.5055 15.7 3.5H8C5.517 3.5055 3.5055 5.517 3.5 8V15.7C3.5055 18.183 5.517 20.1945 8 20.2H15.7C18.183 20.1945 20.1945 18.183 20.2 15.7V8Z"
              fill="white"
              fill-rule="evenodd"
            />
            <path
              clip-rule="evenodd"
              d="M7.55 11.85C7.5555 9.47746 9.47746 7.5555 11.85 7.55C14.2225 7.5555 16.1445 9.47746 16.15 11.85C16.15 14.2248 14.2248 16.15 11.85 16.15C9.47518 16.15 7.55 14.2248 7.55 11.85ZM14.65 11.85C14.65 10.3036 13.3964 9.05 11.85 9.05C10.3059 9.05549 9.05549 10.3059 9.05 11.85C9.05 13.3964 10.3036 14.65 11.85 14.65C13.3964 14.65 14.65 13.3964 14.65 11.85Z"
              fill="white"
              fill-rule="evenodd"
            />
            <path
              d="M15.51 6.505C15.51 5.90577 15.9958 5.42 16.595 5.42C17.1942 5.42 17.68 5.90577 17.68 6.505C17.68 7.10423 17.1942 7.59 16.595 7.59C15.9958 7.59 15.51 7.10423 15.51 6.505Z"
              fill="white"
            />
  </symbol>
  <symbol id="twitter">
  <path
              clip-rule="evenodd"
              d="M4.56796 18.2849C5.71196 18.7239 6.97996 18.9019 6.99396 18.9039C7.02296 18.9089 8.26696 19.1119 10.425 18.7829C12.55 18.4589 14.383 17.0799 14.401 17.0659C14.464 17.0249 15.839 16.1849 17.326 13.6689C18.806 11.1639 18.553 8.33188 18.55 8.30388C18.535 8.14588 18.594 7.99088 18.712 7.88488C18.712 7.88488 19.018 7.60488 19.426 7.27188C19.145 7.32288 18.9 7.35888 18.852 7.36588C18.62 7.39488 18.406 7.27388 18.318 7.06388C18.231 6.85288 18.296 6.60988 18.478 6.47188C18.484 6.46888 18.784 6.23988 19.154 5.91888C18.618 6.09988 18.162 6.18288 18.135 6.18788C17.919 6.22188 17.71 6.12288 17.609 5.93488C17.612 5.96088 17.439 5.79888 16.828 5.39088C16.235 4.99588 15.211 4.97988 14.867 5.00788C14.867 5.00788 13.455 5.18388 12.593 6.38388C11.738 7.57288 12.086 8.99788 12.089 9.01288C12.13 9.16988 12.091 9.33688 11.986 9.46088C11.881 9.58388 11.718 9.64488 11.562 9.63588L10.625 9.55488C10.441 9.54088 9.40696 9.36388 8.35796 8.99288C7.30596 8.62188 6.67796 8.23588 5.80896 7.70288C5.22796 7.34688 4.45896 6.60188 3.95396 6.08388C3.79896 6.56688 3.67896 7.28088 3.92996 8.04388C4.33496 9.27988 5.21196 9.79388 5.21996 9.79888C5.40796 9.90188 5.50796 10.1139 5.46996 10.3249C5.43196 10.5359 5.26396 10.6989 5.05096 10.7299C4.95296 10.7479 4.70396 10.7529 4.15396 10.6389C4.04896 10.6179 3.94596 10.5919 3.84896 10.5609C3.93896 10.9499 4.15096 11.5389 4.64896 12.0559C5.47496 12.9159 6.31096 13.0249 6.34596 13.0289C6.59196 13.0579 6.78196 13.2639 6.78896 13.5119C6.79596 13.7599 6.62296 13.9739 6.37996 14.0179C6.37996 14.0179 5.80996 14.1199 5.45296 14.1549C5.43696 14.1559 5.42096 14.1579 5.40396 14.1589C5.43396 14.2079 5.46496 14.2569 5.49596 14.3039C5.50496 14.3189 5.97096 15.0499 6.74896 15.3929C7.53696 15.7399 8.06796 15.7119 8.07196 15.7099C8.29496 15.6909 8.49796 15.8249 8.57596 16.0299C8.65396 16.2359 8.59196 16.4679 8.41796 16.6019C8.38096 16.6319 7.49196 17.3149 5.99896 17.9269C5.53496 18.1159 5.04296 18.2259 4.56796 18.2849ZM8.10996 19.9719C7.31096 19.9719 6.86996 19.8969 6.83896 19.8909C6.79296 19.8859 5.25796 19.6699 3.93896 19.1089C1.90296 18.2459 1.96196 17.9579 2.01896 17.6799C2.06996 17.4289 2.36196 17.2469 2.61796 17.2859C3.75796 17.4199 4.85196 17.3149 5.61996 17.0009C6.05496 16.8229 6.43496 16.6379 6.75096 16.4679C6.62196 16.4229 6.48696 16.3699 6.34596 16.3079C5.27696 15.8369 4.67596 14.8799 4.65096 14.8389C4.54296 14.6729 4.26896 14.2359 4.19096 13.9799C4.11796 13.7379 4.11096 13.7089 4.11096 13.7089C4.07496 13.5429 4.12496 13.3649 4.24396 13.2449C4.27996 13.2079 4.32196 13.1779 4.36696 13.1529C4.22096 13.0349 4.07396 12.9009 3.92796 12.7499C2.82696 11.6039 2.78496 10.2259 2.78396 10.1679L2.76496 9.78788C2.75596 9.60288 2.84996 9.42888 3.00896 9.33388C3.12796 9.26288 3.26996 9.24688 3.39996 9.28188C3.24096 9.01588 3.09496 8.70888 2.97996 8.35488C2.37996 6.53088 3.33896 4.98988 3.38096 4.92588C3.46396 4.79288 3.60496 4.70788 3.75996 4.69488C3.91796 4.68088 4.06896 4.74188 4.17396 4.85788C4.54896 5.27488 5.66896 6.44388 6.33196 6.84988C7.17896 7.37088 7.73896 7.71388 8.69096 8.04988C9.66996 8.39588 10.611 8.54988 10.703 8.55788L11.024 8.58588C10.981 7.89988 11.059 6.80388 11.781 5.79988C12.91 4.22888 14.698 4.01988 14.774 4.01288C14.85 4.00488 16.377 3.88888 17.383 4.55888C17.79 4.83088 18.043 5.01788 18.203 5.15088C18.486 5.08488 18.968 4.95288 19.385 4.74788L20.23 4.33088C20.409 4.23888 20.625 4.26488 20.779 4.39688C20.932 4.52788 20.991 4.73788 20.931 4.92988C20.906 5.00388 20.747 5.48388 20.463 5.94088C20.639 5.87188 20.772 5.81588 20.774 5.81488C20.98 5.73288 21.215 5.79088 21.355 5.96188C21.494 6.13488 21.503 6.37788 21.378 6.55988C21.311 6.65788 20.705 7.52888 20.197 7.93488C19.94 8.14088 19.711 8.33688 19.562 8.46688C19.598 9.27888 19.581 11.8179 18.188 14.1769C16.553 16.9439 15.021 17.8579 14.957 17.8949C14.925 17.9239 12.96 19.4079 10.576 19.7709C9.55696 19.9279 8.72696 19.9719 8.10996 19.9719Z"
              fill="white"
              fill-rule="evenodd"
            />
  </symbol>
  <symbol id="facebook">
   <path
              d="M14.06 9.91H15.06C15.189 9.91003 15.3127 9.85809 15.403 9.76589C15.4933 9.6737 15.5427 9.54903 15.54 9.42V7.82C15.5409 7.56977 15.3494 7.36085 15.1 7.34C15.1 7.34 14.39 7.28 13.52 7.28C11.38 7.28 10.2 8.55 10.2 10.85V12.62H8.22999C8.10186 12.6172 7.97817 12.6669 7.88754 12.7576C7.79692 12.8482 7.74724 12.9719 7.74999 13.1V14.56C7.74724 14.6881 7.79692 14.8118 7.88754 14.9024C7.97817 14.9931 8.10186 15.0428 8.22999 15.04H10.17V20.7H13.09V15.04H14.85C15.0917 15.0375 15.2955 14.8592 15.33 14.62L15.51 13.16C15.5283 13.0218 15.4844 12.8826 15.39 12.78C15.2984 12.6776 15.1674 12.6194 15.03 12.62H13.09V10.91C13.0897 10.3692 13.5195 9.92622 14.06 9.91Z"
              fill="white"
            />
            <path
              clip-rule="evenodd"
              d="M2 11.91C2 6.43686 6.43686 2 11.91 2C14.5383 2 17.0589 3.04409 18.9174 4.90257C20.7759 6.76106 21.82 9.2817 21.82 11.91C21.82 17.3831 17.3831 21.82 11.91 21.82C6.43686 21.82 2 17.3831 2 11.91ZM20.32 11.91C20.32 7.26529 16.5547 3.5 11.91 3.5C7.26984 3.511 3.51099 7.26985 3.5 11.91C3.5 16.5547 7.26528 20.32 11.91 20.32C16.5547 20.32 20.32 16.5547 20.32 11.91Z"
              fill="white"
              fill-rule="evenodd"
            />
  </symbol>
  <symbol id="phone">
<path
              clip-rule="evenodd"
              d="M14.0692 19.9259C12.7091 19.8758 8.85483 19.3433 4.81823 15.3084C0.782584 11.2727 0.250856 7.42009 0.199855 6.05941C0.124299 3.98582 1.71287 1.97171 3.54794 1.18514C3.76892 1.08974 4.01092 1.05342 4.25017 1.07974C4.48943 1.10606 4.71773 1.19412 4.91268 1.33528C6.4238 2.43629 7.46648 4.10196 8.36182 5.41165C8.55882 5.69939 8.64305 6.04954 8.59846 6.39538C8.55387 6.74121 8.38359 7.05856 8.12004 7.28695L6.27741 8.65518C6.18839 8.71946 6.12573 8.81385 6.10106 8.92083C6.0764 9.0278 6.09141 9.1401 6.1433 9.23685C6.56075 9.99509 7.30309 11.1244 8.1531 11.9743C9.00405 12.8241 10.1865 13.6154 10.9978 14.08C11.0995 14.137 11.2192 14.153 11.3324 14.1246C11.4455 14.0961 11.5434 14.0254 11.606 13.927L12.8055 12.1017C13.026 11.8089 13.3513 11.6127 13.7133 11.5542C14.0752 11.4958 14.4458 11.5797 14.7473 11.7882C16.0761 12.7079 17.6269 13.7325 18.7621 15.1857C18.9148 15.382 19.0119 15.6157 19.0433 15.8624C19.0747 16.1091 19.0392 16.3596 18.9406 16.5879C18.1501 18.4321 16.1498 20.0024 14.0692 19.9259Z"
              fill="white"
              fill-rule="evenodd"
            />
  </symbol>
  <symbol id="email">
   <path
              d="M20.4294 15.7142V6.28566C20.4294 5.41614 19.6867 4.71423 18.7665 4.71423H3.23515C2.31502 4.71423 1.57227 5.41614 1.57227 6.28566V15.7142C1.57227 16.5838 2.31502 17.2857 3.23515 17.2857H18.7665C19.6867 17.2857 20.4294 16.5838 20.4294 15.7142ZM18.9772 6.17042C19.343 6.51614 19.1434 6.87233 18.9439 7.05042L14.443 10.9476L18.7665 15.2009C18.8996 15.3476 18.9882 15.578 18.833 15.7352C18.6889 15.9028 18.3563 15.8923 18.2122 15.7876L13.3677 11.8799L10.9953 13.9228L8.63399 11.8799L3.78945 15.7876C3.64533 15.8923 3.31275 15.9028 3.16864 15.7352C3.01343 15.578 3.10212 15.3476 3.23515 15.2009L7.55866 10.9476L3.05778 7.05042C2.85823 6.87233 2.65869 6.51614 3.02452 6.17042C3.39036 5.82471 3.76728 5.99233 4.07768 6.24376L10.9953 11.5238L17.924 6.24376C18.2344 5.99233 18.6113 5.82471 18.9772 6.17042Z"
              fill="white"
            />
    </symbol>

    <symbol id="address">
       <path
              clip-rule="evenodd"
              d="M10.9997 19.4854L11.6951 20.1511C11.6038 20.239 11.4954 20.3088 11.376 20.3564C11.2566 20.404 11.1285 20.4286 10.9992 20.4286C10.8699 20.4286 10.7419 20.404 10.6225 20.3564C10.5031 20.3088 10.3946 20.239 10.3034 20.1511L10.2975 20.1445L10.2808 20.1285L10.2199 20.0691C9.87368 19.7267 9.53316 19.379 9.19847 19.0263C8.35815 18.1423 7.55351 17.2277 6.78633 16.2845C5.91026 15.2002 5.01454 13.9745 4.33392 12.7639C3.66802 11.5769 3.14258 10.2908 3.14258 9.11416C3.14258 4.83459 6.67044 1.57141 10.9997 1.57141C15.329 1.57141 18.8569 4.83459 18.8569 9.11416C18.8569 10.2908 18.3314 11.5769 17.6655 12.763C16.9849 13.9755 16.0902 15.2002 15.2131 16.2845C14.14 17.6041 12.9938 18.8675 11.7795 20.0691L11.7186 20.1285L11.702 20.1445L11.6961 20.1501L10.9997 19.4854ZM10.9997 11.9427C11.7812 11.9427 12.5306 11.6447 13.0832 11.1142C13.6357 10.5838 13.9461 9.86433 13.9461 9.11416C13.9461 8.36399 13.6357 7.64454 13.0832 7.11409C12.5306 6.58363 11.7812 6.28563 10.9997 6.28563C10.2183 6.28563 9.46884 6.58363 8.91628 7.11409C8.36372 7.64454 8.05329 8.36399 8.05329 9.11416C8.05329 9.86433 8.36372 10.5838 8.91628 11.1142C9.46884 11.6447 10.2183 11.9427 10.9997 11.9427Z"
              fill="white"
              fill-rule="evenodd"
            />
    </symbol>
  <!-- end footer svgs -->
</svg>
