<svg width="32" height="32" viewBox="0 0 32 32" fill="none" xmlns="http://www.w3.org/2000/svg">
<g id="Favorite">
<path id="Icon" d="M29.466 12.1333C29.3327 7.6 25.7327 4 21.1993 4C19.7327 4 17.466 5.06667 16.5327 6.8C16.3993 7.2 15.866 7.2 15.7327 6.8C14.666 5.2 12.5327 4.13333 10.9327 4.13333C6.53268 4.13333 2.79935 7.73333 2.66602 12.1333V12.4C2.66602 14.6667 3.59935 16.8 5.19935 18.4C5.19935 18.4 5.19935 18.4 5.19935 18.5333C5.33268 18.6667 11.7327 24.2667 14.666 26.8C15.466 27.4667 16.666 27.4667 17.466 26.8C20.3993 24.2667 26.666 18.6667 26.9327 18.5333C26.9327 18.5333 26.9327 18.5333 26.9327 18.4C28.5327 16.9333 29.466 14.8 29.466 12.4V12.1333Z" fill="#FFD640"/>
</g>
</svg>
